# xmcd
#
# Track frame offsets: 
#        150
#        22608
#        37916
#        52412
#        67176
#        81622
#        100304
#        115266
#        130099
#        145284
#        176657
#        193881
#        227842
#        258097
#        273541
#
# Disc length: 4017 seconds
#
# Revision: 1
# Processed by: cddbd v1.5.2PL0 Copyright (c) Steve Scherf et al.
# Submitted via: ExactAudioCopy v0.99pb4
#
DISCID=de0faf0f
DTITLE=Various Artist - Millenium - The Finest Collection (Ghazals - vol 1)
DYEAR=1999
DGENRE=Ghazals
TTITLE0=Introduction By Gulzar and Jagjit Singh
TTITLE1=Yun Na Rah Rah Kar (Master Madan, Master Madan, Sagar Nizami)
TTITLE2=Hairat Se Tak Raha Hai (Master Madan, Master Madan, Sagar Niza
TTITLE2=mi)
TTITLE3=Kahoon Jo Haal-E-Dil (C.H. Atma, Khaiyyam, Mirza Ghalib(Tradit
TTITLE3=ional))
TTITLE4=Lagta Nahin Hai Jee Mera (Habeeb Wali Mohammed, Saraswati Devi
TTITLE4=, Bahadur Shah Zafar (Traditional)
TTITLE5=Aaj Us Shokh Ne (C.H. Atma, C K Chauhan, Zafar Gorakhpuri)
TTITLE6=Baharon Se Keh Do (Mukesh, Kishore Desai, Shivkumar 'Saroj')
TTITLE7=Ke Ab Zindagi Mein (Mukesh, Kaif Irfani)
TTITLE8=Aye Mohabbat Tere Anjam Pe Rona Aaya (Begum Akhtar, Murli Mano
TTITLE8=har Swarup, Shakeel Badayuni)
TTITLE9=Ab Chhalakte Huye Sagar (Begum Akhtar, Ali Ahmed Jaleeli)
TTITLE10=Mere Mehboob Mere Dost (Mukesh, Murli Manohar Swarup, Shaukat
TTITLE10=Pardesi))
TTITLE11=Mere Naseeb Ne Jab Mujh Se (Begum Akhtar, Murli Manohar Swaru
TTITLE11=p, Shaz Tamkanat)
TTITLE12=Mere Humnafas Mere Humnava (Begum Akhtar, Khaiyyam, Shakeel B
TTITLE12=adayuni)
TTITLE13=Tere Labon Ke Muqabil (Mukesh, Kishore Desai, Shivkumar 'Saro
TTITLE13=j')
TTITLE14=Ulti Ho Gayin Sab Tadbiren (Begum Akhtar, Khaiyyam, Meer Taqi
TTITLE14=Meer(Traditional) )
EXTD=
EXTT0=
EXTT1=
EXTT2=
EXTT3=
EXTT4=
EXTT5=
EXTT6=
EXTT7=
EXTT8=
EXTT9=
EXTT10=
EXTT11=
EXTT12=
EXTT13=
EXTT14=
PLAYORDER=
